<?xml version="1.0" encoding="UTF-8" standalone="no"?>
<svg
   role="img"
   viewBox="0 0 24 24"
   version="1.1"
   id="svg1"
   sodipodi:docname="monogame2.svg"
   inkscape:version="1.3.2 (091e20e, 2023-11-25, custom)"
   xmlns:inkscape="http://www.inkscape.org/namespaces/inkscape"
   xmlns:sodipodi="http://sodipodi.sourceforge.net/DTD/sodipodi-0.dtd"
   xmlns="http://www.w3.org/2000/svg"
   xmlns:svg="http://www.w3.org/2000/svg">
  <defs
     id="defs1"
     fill="#ffffff" />
  <sodipodi:namedview
     id="namedview1"
     pagecolor="#ffffff"
     bordercolor="#ffffff"
     borderopacity="0.25"
     inkscape:showpageshadow="2"
     inkscape:pageopacity="0.0"
     inkscape:pagecheckerboard="0"
     inkscape:deskcolor="#d1d1d1"
     inkscape:zoom="25.632621"
     inkscape:cx="11.664824"
     inkscape:cy="15.175974"
     inkscape:window-width="1920"
     inkscape:window-height="1009"
     inkscape:window-x="-8"
     inkscape:window-y="-8"
     inkscape:window-maximized="1"
     inkscape:current-layer="svg1"
     fill="#ffffff" />
  <title
     id="title1">MonoGame</title>
  <path
     d="M 22.233931,10.383143 V 7.5916933 A 6.0408933,6.0408933 0 0 0 11.999465,3.2437512 6.0408933,6.0408933 0 0 0 1.765,7.5916933 v 8.3871437 a 6.0408933,6.0408933 0 0 0 6.0408931,6.040894 h 8.3871449 a 6.0408933,6.0408933 0 0 0 6.029806,-6.40507 h 0.01109 v -3.694642 h -12.08179 v 3.694642 h 8.387145 v 0.364176 a 2.3462512,2.3462512 0 0 1 -2.346251,2.346251 H 7.8058931 A 2.3462512,2.3462512 0 0 1 5.4596419,15.978837 V 7.5916933 a 2.3462514,2.3462514 0 1 1 4.6925021,0 v 2.7914497 h 3.694642 V 7.5916933 a 2.3462515,2.3462515 0 1 1 4.692503,0 v 2.7914497 z"
     id="path1"
     style="stroke-width:0.852872"
     fill="#ffffff" />
  <path
     style="opacity:0;fill:#ffffff;stroke-width:0.0551724"
     d="M 7.0068966,22.141277 C 5.7546562,21.964027 4.4605415,21.315714 3.5586207,20.413793 2.8032785,19.658451 2.276629,18.729333 1.9689877,17.609354 L 1.8224456,17.075862 1.8053718,12.248276 C 1.790671,8.091685 1.8002289,7.3450196 1.8741372,6.8762689 2.4354609,3.3161709 6.0102686,1.0230417 9.4465092,2.0188253 10.291907,2.2638118 11.119913,2.7105564 11.739654,3.2560738 L 12,3.4852399 12.260346,3.2560738 c 0.619741,-0.5455174 1.447747,-0.992262 2.293145,-1.2372485 3.05165,-0.8843337 6.294176,0.8249958 7.327378,3.8626996 0.27176,0.7989988 0.325559,1.3059667 0.325806,3.0701992 l 2.22e-4,1.5862069 h -1.82069 -1.82069 V 9.0322814 c 0,-1.6371327 -0.03531,-1.9091444 -0.314357,-2.4218515 -0.1933,-0.3551554 -0.662868,-0.7909032 -1.036737,-0.9620658 -1.37116,-0.6277378 -2.931846,0.1049643 -3.309159,1.5535648 -0.06599,0.2533368 -0.08457,0.655627 -0.08457,1.8303525 V 10.537931 H 12 10.17931 V 9.0322814 c 0,-1.1747255 -0.01859,-1.5770157 -0.08457,-1.8303525 C 9.8519228,6.2697065 9.1243906,5.6089004 8.1660017,5.4500902 6.9498347,5.2485648 5.744538,6.0825807 5.4916752,7.3006146 c -0.041519,0.1999978 -0.055504,1.714613 -0.044941,4.8672814 0.015272,4.557987 0.015833,4.578145 0.1355179,4.870128 0.274495,0.669654 0.8266587,1.18187 1.4994219,1.39094 0.3372512,0.104806 0.5250388,0.108967 4.918326,0.108967 4.419912,0 4.579307,-0.0036 4.926851,-0.110935 0.663065,-0.2048 1.266063,-0.7831 1.50783,-1.446072 0.04735,-0.129853 0.09961,-0.453338 0.11612,-0.718855 l 0.03002,-0.482759 H 14.380067 10.17931 v -1.820689 -1.82069 h 6.017807 6.017808 l -0.021,2.468966 c -0.0209,2.457884 -0.02164,2.47136 -0.165227,3.002457 -0.598997,2.215645 -2.173662,3.793527 -4.401113,4.410105 l -0.468965,0.129814 -4.993104,0.0077 c -2.7462067,0.0042 -5.067586,-0.0028 -5.1586204,-0.01571 z"
     id="path2" />
  <path
     style="opacity:0;fill:#ffffff;stroke-width:0.0551724"
     d="M 7.0068966,22.141277 C 5.7546562,21.964027 4.4605415,21.315714 3.5586207,20.413793 2.8032785,19.658451 2.276629,18.729333 1.9689877,17.609354 L 1.8224456,17.075862 1.8053718,12.248276 C 1.790671,8.091685 1.8002289,7.3450196 1.8741372,6.8762689 2.4354609,3.3161709 6.0102686,1.0230417 9.4465092,2.0188253 10.291907,2.2638118 11.119913,2.7105564 11.739654,3.2560738 L 12,3.4852399 12.260346,3.2560738 c 0.619741,-0.5455174 1.447747,-0.992262 2.293145,-1.2372485 3.05165,-0.8843337 6.294176,0.8249958 7.327378,3.8626996 0.27176,0.7989988 0.325559,1.3059667 0.325806,3.0701992 l 2.22e-4,1.5862069 h -1.82069 -1.82069 V 9.0322814 c 0,-1.6371327 -0.03531,-1.9091444 -0.314357,-2.4218515 -0.1933,-0.3551554 -0.662868,-0.7909032 -1.036737,-0.9620658 -1.37116,-0.6277378 -2.931846,0.1049643 -3.309159,1.5535648 -0.06599,0.2533368 -0.08457,0.655627 -0.08457,1.8303525 V 10.537931 H 12 10.17931 V 9.0322814 c 0,-1.1747255 -0.01859,-1.5770157 -0.08457,-1.8303525 C 9.8519228,6.2697065 9.1243906,5.6089004 8.1660017,5.4500902 6.9498347,5.2485648 5.744538,6.0825807 5.4916752,7.3006146 c -0.041519,0.1999978 -0.055504,1.714613 -0.044941,4.8672814 0.015272,4.557987 0.015833,4.578145 0.1355179,4.870128 0.274495,0.669654 0.8266587,1.18187 1.4994219,1.39094 0.3372512,0.104806 0.5250388,0.108967 4.918326,0.108967 4.419912,0 4.579307,-0.0036 4.926851,-0.110935 0.663065,-0.2048 1.266063,-0.7831 1.50783,-1.446072 0.04735,-0.129853 0.09961,-0.453338 0.11612,-0.718855 l 0.03002,-0.482759 H 14.380067 10.17931 v -1.820689 -1.82069 h 6.017807 6.017808 l -0.021,2.468966 c -0.0209,2.457884 -0.02164,2.47136 -0.165227,3.002457 -0.598997,2.215645 -2.173662,3.793527 -4.401113,4.410105 l -0.468965,0.129814 -4.993104,0.0077 c -2.7462067,0.0042 -5.067586,-0.0028 -5.1586204,-0.01571 z"
     id="path3" />
  <path
     style="opacity:0;fill:#ffffff;stroke-width:0.0551724"
     d="M 7.0068966,22.141277 C 5.7546562,21.964027 4.4605415,21.315714 3.5586207,20.413793 2.8032785,19.658451 2.276629,18.729333 1.9689877,17.609354 L 1.8224456,17.075862 1.8053718,12.248276 C 1.790671,8.091685 1.8002289,7.3450196 1.8741372,6.8762689 2.4354609,3.3161709 6.0102686,1.0230417 9.4465092,2.0188253 10.291907,2.2638118 11.119913,2.7105564 11.739654,3.2560738 L 12,3.4852399 12.260346,3.2560738 c 0.619741,-0.5455174 1.447747,-0.992262 2.293145,-1.2372485 3.05165,-0.8843337 6.294176,0.8249958 7.327378,3.8626996 0.27176,0.7989988 0.325559,1.3059667 0.325806,3.0701992 l 2.22e-4,1.5862069 h -1.82069 -1.82069 V 9.0322814 c 0,-1.6371327 -0.03531,-1.9091444 -0.314357,-2.4218515 -0.1933,-0.3551554 -0.662868,-0.7909032 -1.036737,-0.9620658 -1.37116,-0.6277378 -2.931846,0.1049643 -3.309159,1.5535648 -0.06599,0.2533368 -0.08457,0.655627 -0.08457,1.8303525 V 10.537931 H 12 10.17931 V 9.0322814 c 0,-1.1747255 -0.01859,-1.5770157 -0.08457,-1.8303525 C 9.8519228,6.2697065 9.1243906,5.6089004 8.1660017,5.4500902 6.9498347,5.2485648 5.744538,6.0825807 5.4916752,7.3006146 c -0.041519,0.1999978 -0.055504,1.714613 -0.044941,4.8672814 0.015272,4.557987 0.015833,4.578145 0.1355179,4.870128 0.274495,0.669654 0.8266587,1.18187 1.4994219,1.39094 0.3372512,0.104806 0.5250388,0.108967 4.918326,0.108967 4.419912,0 4.579307,-0.0036 4.926851,-0.110935 0.663065,-0.2048 1.266063,-0.7831 1.50783,-1.446072 0.04735,-0.129853 0.09961,-0.453338 0.11612,-0.718855 l 0.03002,-0.482759 H 14.380067 10.17931 v -1.820689 -1.82069 h 6.017807 6.017808 l -0.021,2.468966 c -0.0209,2.457884 -0.02164,2.47136 -0.165227,3.002457 -0.598997,2.215645 -2.173662,3.793527 -4.401113,4.410105 l -0.468965,0.129814 -4.993104,0.0077 c -2.7462067,0.0042 -5.067586,-0.0028 -5.1586204,-0.01571 z"
     id="path4" />
  <path
     style="opacity:0;fill:#ffffff;stroke-width:0.0551724"
     d="M 7.0068966,22.141277 C 5.7546562,21.964027 4.4605415,21.315714 3.5586207,20.413793 2.8032785,19.658451 2.276629,18.729333 1.9689877,17.609354 L 1.8224456,17.075862 1.8053718,12.248276 C 1.790671,8.091685 1.8002289,7.3450196 1.8741372,6.8762689 2.4354609,3.3161709 6.0102686,1.0230417 9.4465092,2.0188253 10.291907,2.2638118 11.119913,2.7105564 11.739654,3.2560738 L 12,3.4852399 12.260346,3.2560738 c 0.619741,-0.5455174 1.447747,-0.992262 2.293145,-1.2372485 3.05165,-0.8843337 6.294176,0.8249958 7.327378,3.8626996 0.27176,0.7989988 0.325559,1.3059667 0.325806,3.0701992 l 2.22e-4,1.5862069 h -1.82069 -1.82069 V 9.0322814 c 0,-1.6371327 -0.03531,-1.9091444 -0.314357,-2.4218515 -0.1933,-0.3551554 -0.662868,-0.7909032 -1.036737,-0.9620658 -1.37116,-0.6277378 -2.931846,0.1049643 -3.309159,1.5535648 -0.06599,0.2533368 -0.08457,0.655627 -0.08457,1.8303525 V 10.537931 H 12 10.17931 V 9.0322814 c 0,-1.1747255 -0.01859,-1.5770157 -0.08457,-1.8303525 C 9.8519228,6.2697065 9.1243906,5.6089004 8.1660017,5.4500902 6.9498347,5.2485648 5.744538,6.0825807 5.4916752,7.3006146 c -0.041519,0.1999978 -0.055504,1.714613 -0.044941,4.8672814 0.015272,4.557987 0.015833,4.578145 0.1355179,4.870128 0.274495,0.669654 0.8266587,1.18187 1.4994219,1.39094 0.3372512,0.104806 0.5250388,0.108967 4.918326,0.108967 4.419912,0 4.579307,-0.0036 4.926851,-0.110935 0.663065,-0.2048 1.266063,-0.7831 1.50783,-1.446072 0.04735,-0.129853 0.09961,-0.453338 0.11612,-0.718855 l 0.03002,-0.482759 H 14.380067 10.17931 v -1.820689 -1.82069 h 6.017807 6.017808 l -0.021,2.468966 c -0.0209,2.457884 -0.02164,2.47136 -0.165227,3.002457 -0.598997,2.215645 -2.173662,3.793527 -4.401113,4.410105 l -0.468965,0.129814 -4.993104,0.0077 c -2.7462067,0.0042 -5.067586,-0.0028 -5.1586204,-0.01571 z"
     id="path5" />
</svg>
